# Made in Blockbench 5.1.4
mtllib center.mtl

o mesh
v 0 1 0
v 0 1 0.75
v 1 1 0.75
v 1 1 0
v 1 0 1
v 1 0.75 1
v 0 0.75 1
v 0 0 1
v 1 0.75 0
v 0 0.75 0
v 0 0.75 0.75
v 0 1 1
v 1 1 1
v 1 0.75 0.75
v 0 0 0.75
v 1 0 0.75
vt 0 0.5
vt 0 0.3125
vt 0.25 0.3125
vt 0.25 0.5
vt 0.5 0.75
vt 0.5 0.9375
vt 0.75 0.9375
vt 0.75 0.75
vt 0 0.25
vt 0 0.1875
vt 0.25 0.1875
vt 0.25 0.25
vt 0.5 0.4375
vt 0.3125 0.4375
vt 0.3125 0.5
vt 0.5 0.5
vt 0.75 1
vt 0.75 0.9375
vt 0.5 0.9375
vt 0.5 1
vt 0.5 0.5
vt 0.3125 0.5
vt 0.3125 0.4375
vt 0.5 0.4375
vt 0.25 0.25
vt 0.25 0.3125
vt 0 0.3125
vt 0 0.25
vt 0.25 0.5
vt 0.3125 0.5
vt 0.3125 0.4375
vt 0.25 0.4375
vt 0.25 0.4375
vt 0.3125 0.4375
vt 0.3125 0.25
vt 0.25 0.25
vt 0 0.25
vt 0 0.1875
vt 0.25 0.1875
vt 0.25 0.25
vt 0.25 0.25
vt 0.3125 0.25
vt 0.3125 0.4375
vt 0.25 0.4375
vt 0.25 0.4375
vt 0.3125 0.4375
vt 0.3125 0.5
vt 0.25 0.5
vt 0.3125 0.4375
vt 0.3125 0.25
vt 0.5 0.4375
vt 0.3125 0.25
vt 0.3125 0.4375
vt 0.5 0.4375
vt 0.5 0.75
vt 0.5 0.5
vt 0.75 0.5
vt 0.75 0.75
vn 0 1 0
vn 0 0 1
vn 0 0 -1
vn -1 0 0
vn 0 0 1
vn 1 0 0
vn 0 1 0
vn -1 0 0
vn -1 0 0
vn 0 -1 0
vn 1 0 0
vn 1 0 0
vn 1 0 0
vn -1 0 0
vn 0 -0.7071067811865476 -0.7071067811865476
usemtl m_0c0be529-f829-77f8-62e6-453bc6c3ac54
f 1/1/1 2/2/1 3/3/1 4/4/1
f 5/5/2 6/6/2 7/7/2 8/8/2
f 4/9/3 9/10/3 10/11/3 1/12/3
f 10/13/4 11/14/4 2/15/4 1/16/4
f 12/17/5 7/18/5 6/19/5 13/20/5
f 4/21/6 3/22/6 14/23/6 9/24/6
f 13/25/7 3/26/7 2/27/7 12/28/7
f 12/29/8 2/30/8 11/31/8 7/32/8
f 7/33/9 11/34/9 15/35/9 8/36/9
f 8/37/10 15/38/10 16/39/10 5/40/10
f 5/41/11 16/42/11 14/43/11 6/44/11
f 6/45/12 14/46/12 3/47/12 13/48/12
f 14/49/13 16/50/13 9/51/13
f 15/52/14 11/53/14 10/54/14
f 9/55/15 16/56/15 15/57/15 10/58/15