# Made in Blockbench 5.1.6
mtllib base.mtl

o mesh
v 0.25 0.0625 0.3125
v 0.25 0.0625 0
v 0.25 0 0.3125
v 0.25 0 0
v 0 0.0625 0.3125
v 0 0.0625 0
v 0 0 0.3125
v 0 0 0
v 0.25 0.0625 0.25
v 0 0.0625 0.25
v 0.25 0.0625 0.0625
v 0 0.0625 0.0625
v 0 0 0.25
v 0 0 0.0625
v 0.25 0 0.25
v 0.25 0 0.0625
v 0.25 0.125 0.25
v 0.25 0.125 0.0625
v 0 0.125 0.0625
v 0 0.125 0.25
vt 0.625 0.75
vt 0.5625 0.75
vt 0.5625 0.6875
vt 0.625 0.6875
vt 0.3125 0.875
vt 0.375 0.875
vt 0.375 0.9375
vt 0.3125 0.9375
vt 0.25 0.9375
vt 0.25 1
vt 0 1
vt 0 0.9375
vt 0.25 0.9375
vt 0.25 1
vt 0 1
vt 0 0.9375
vt 0.25 0.625
vt 0 0.625
vt 0 0.5625
vt 0.25 0.5625
vt 0.25 0.875
vt 0.25 0.6875
vt 0 0.6875
vt 0 0.875
vt 0.625 0.9375
vt 0.5625 0.9375
vt 0.5625 0.875
vt 0.625 0.875
vt 0.5625 0.9375
vt 0.375 0.9375
vt 0.375 0.875
vt 0.5625 0.875
vt 0 0.75
vt 0 0.6875
vt 0.25 0.6875
vt 0.25 0.75
vt 0 0.9375
vt 0 0.75
vt 0.25 0.75
vt 0.25 0.9375
vt 0.3125 0.6875
vt 0.375 0.6875
vt 0.375 0.75
vt 0.3125 0.75
vt 0.375 0.6875
vt 0.5625 0.6875
vt 0.5625 0.75
vt 0.375 0.75
vt 0.5625 0.8125
vt 0.375 0.8125
vt 0.375 0.75
vt 0.5625 0.75
vt 0.5625 1
vt 0.375 1
vt 0.375 0.9375
vt 0.5625 0.9375
vt 0 0.9375
vt 0 0.875
vt 0.25 0.875
vt 0.25 0.9375
vt 0.25 0.625
vt 0.25 0.6875
vt 0 0.6875
vt 0 0.625
vt 0.5625 0.8125
vt 0.5625 0.75
vt 0.625 0.75
vt 0.3125 0.75
vt 0.375 0.75
vt 0.375 0.8125
vt 0.375 1
vt 0.3125 0.9375
vt 0.375 0.9375
vt 0.5625 1
vt 0.5625 0.9375
vt 0.625 0.9375
vn 1 0 0
vn -1 0 0
vn 0 -1 0
vn 0 0 1
vn 0 0 -1
vn 0 1 0
vn -1 0 0
vn -1 0 0
vn 0 -1 0
vn 0 -1 0
vn 1 0 0
vn 1 0 0
vn 1 0 0
vn -1 0 0
vn 0 0.7071067811865476 0.7071067811865476
vn 0 0.7071067811865476 -0.7071067811865476
vn 1 0 0
vn 1 0 0
vn -1 0 0
vn -1 0 0
usemtl m_7dc60939-3369-22fa-d196-1d88f568314b
f 2/1/1 11/2/1 16/3/1 4/4/1
f 8/5/2 14/6/2 12/7/2 6/8/2
f 4/9/3 16/10/3 14/11/3 8/12/3
f 3/13/4 1/14/4 5/15/4 7/16/4
f 6/17/5 2/18/5 4/19/5 8/20/5
f 17/21/6 18/22/6 19/23/6 20/24/6
f 5/25/7 10/26/7 13/27/7 7/28/7
f 10/29/8 12/30/8 14/31/8 13/32/8
f 7/33/9 13/34/9 15/35/9 3/36/9
f 13/37/10 14/38/10 16/39/10 15/40/10
f 3/41/11 15/42/11 9/43/11 1/44/11
f 15/45/12 16/46/12 11/47/12 9/48/12
f 18/49/13 17/50/13 9/51/13 11/52/13
f 20/53/14 19/54/14 12/55/14 10/56/14
f 20/57/15 5/58/15 1/59/15 17/60/15
f 6/61/16 19/62/16 18/63/16 2/64/16
f 18/65/17 11/66/17 2/67/17
f 1/68/18 9/69/18 17/70/18
f 19/71/19 6/72/19 12/73/19
f 20/74/20 10/75/20 5/76/20