# Made in Blockbench 5.1.6
mtllib item.mtl

o mesh
v 0.625 0.40625 0.65625
v 0.625 0.40625 0.34375
v 0.625 0.34375 0.65625
v 0.625 0.34375 0.34375
v 0.375 0.40625 0.65625
v 0.375 0.40625 0.34375
v 0.375 0.34375 0.65625
v 0.375 0.34375 0.34375
v 0.625 0.40625 0.59375
v 0.375 0.40625 0.59375
v 0.625 0.40625 0.40625
v 0.375 0.40625 0.40625
v 0.375 0.34375 0.59375
v 0.375 0.34375 0.40625
v 0.625 0.34375 0.59375
v 0.625 0.34375 0.40625
v 0.625 0.46875 0.59375
v 0.625 0.46875 0.40625
v 0.375 0.46875 0.40625
v 0.375 0.46875 0.59375
vt 0.625 0.75
vt 0.5625 0.75
vt 0.5625 0.6875
vt 0.625 0.6875
vt 0.3125 0.875
vt 0.375 0.875
vt 0.375 0.9375
vt 0.3125 0.9375
vt 0.25 0.9375
vt 0.25 1
vt 0 1
vt 0 0.9375
vt 0.25 0.9375
vt 0.25 1
vt 0 1
vt 0 0.9375
vt 0.25 0.625
vt 0 0.625
vt 0 0.5625
vt 0.25 0.5625
vt 0.25 0.875
vt 0.25 0.6875
vt 0 0.6875
vt 0 0.875
vt 0.625 0.9375
vt 0.5625 0.9375
vt 0.5625 0.875
vt 0.625 0.875
vt 0.5625 0.9375
vt 0.375 0.9375
vt 0.375 0.875
vt 0.5625 0.875
vt 0 0.75
vt 0 0.6875
vt 0.25 0.6875
vt 0.25 0.75
vt 0 0.9375
vt 0 0.75
vt 0.25 0.75
vt 0.25 0.9375
vt 0.3125 0.6875
vt 0.375 0.6875
vt 0.375 0.75
vt 0.3125 0.75
vt 0.375 0.6875
vt 0.5625 0.6875
vt 0.5625 0.75
vt 0.375 0.75
vt 0.5625 0.8125
vt 0.375 0.8125
vt 0.375 0.75
vt 0.5625 0.75
vt 0.5625 1
vt 0.375 1
vt 0.375 0.9375
vt 0.5625 0.9375
vt 0 0.9375
vt 0 0.875
vt 0.25 0.875
vt 0.25 0.9375
vt 0.25 0.625
vt 0.25 0.6875
vt 0 0.6875
vt 0 0.625
vt 0.5625 0.8125
vt 0.5625 0.75
vt 0.625 0.75
vt 0.3125 0.75
vt 0.375 0.75
vt 0.375 0.8125
vt 0.375 1
vt 0.3125 0.9375
vt 0.375 0.9375
vt 0.5625 1
vt 0.5625 0.9375
vt 0.625 0.9375
vn 1 0 0
vn -1 0 0
vn 0 -1 0
vn 0 0 1
vn 0 0 -1
vn 0 1 0
vn -1 0 0
vn -1 0 0
vn 0 -1 0
vn 0 -1 0
vn 1 0 0
vn 1 0 0
vn 1 0 0
vn -1 0 0
vn 0 0.7071067811865476 0.7071067811865476
vn 0 0.7071067811865476 -0.7071067811865476
vn 1 0 0
vn 1 0 0
vn -1 0 0
vn -1 0 0
usemtl m_06e51f59-a2cb-a6f2-06ca-0f00fb24d054
f 2/1/1 11/2/1 16/3/1 4/4/1
f 8/5/2 14/6/2 12/7/2 6/8/2
f 4/9/3 16/10/3 14/11/3 8/12/3
f 3/13/4 1/14/4 5/15/4 7/16/4
f 6/17/5 2/18/5 4/19/5 8/20/5
f 17/21/6 18/22/6 19/23/6 20/24/6
f 5/25/7 10/26/7 13/27/7 7/28/7
f 10/29/8 12/30/8 14/31/8 13/32/8
f 7/33/9 13/34/9 15/35/9 3/36/9
f 13/37/10 14/38/10 16/39/10 15/40/10
f 3/41/11 15/42/11 9/43/11 1/44/11
f 15/45/12 16/46/12 11/47/12 9/48/12
f 18/49/13 17/50/13 9/51/13 11/52/13
f 20/53/14 19/54/14 12/55/14 10/56/14
f 20/57/15 5/58/15 1/59/15 17/60/15
f 6/61/16 19/62/16 18/63/16 2/64/16
f 18/65/17 11/66/17 2/67/17
f 1/68/18 9/69/18 17/70/18
f 19/71/19 6/72/19 12/73/19
f 20/74/20 10/75/20 5/76/20
o cube
v 0.40625 0.40625 0.53125
v 0.40625 0.40625 0.46875
v 0.40625 0.34375 0.53125
v 0.40625 0.34375 0.46875
v 0.34375 0.40625 0.46875
v 0.34375 0.40625 0.53125
v 0.34375 0.34375 0.46875
v 0.34375 0.34375 0.53125
vt 0 0.0625
vt 0.0625 0.0625
vt 0.0625 0
vt 0 0
vt 0 0.0625
vt 0.0625 0.0625
vt 0.0625 0
vt 0 0
vt 0 0.0625
vt 0.0625 0.0625
vt 0.0625 0
vt 0 0
vt 0 0.0625
vt 0.0625 0.0625
vt 0.0625 0
vt 0 0
vt 0 0.125
vt 0.0625 0.125
vt 0.0625 0.0625
vt 0 0.0625
vt 0 0.0625
vt 0.0625 0.0625
vt 0.0625 0
vt 0 0
vn 0 0 -1
vn 1 0 0
vn 0 0 1
vn -1 0 0
vn 0 1 0
vn 0 -1 0
usemtl m_06e51f59-a2cb-a6f2-06ca-0f00fb24d054
f 24/80/21 27/79/21 25/78/21 22/77/21
f 23/84/22 24/83/22 22/82/22 21/81/22
f 28/88/23 23/87/23 21/86/23 26/85/23
f 27/92/24 28/91/24 26/90/24 25/89/24
f 26/96/25 21/95/25 22/94/25 25/93/25
f 27/100/26 24/99/26 23/98/26 28/97/26
o cube
v 0.34375 0.59375 0.53125
v 0.34375 0.59375 0.46875
v 0.34375 0.40625 0.53125
v 0.34375 0.40625 0.46875
v 0.34375 0.59375 0.46875
v 0.34375 0.59375 0.53125
v 0.34375 0.40625 0.46875
v 0.34375 0.40625 0.53125
vt 0 0.25
vt 0.0625 0.25
vt 0.0625 0.0625
vt 0 0.0625
vt 0 0.25
vt 0.0625 0.25
vt 0.0625 0.0625
vt 0 0.0625
vn 1 0 0
vn -1 0 0
usemtl m_06e51f59-a2cb-a6f2-06ca-0f00fb24d054
f 31/104/27 32/103/27 30/102/27 29/101/27
f 35/108/28 36/107/28 34/106/28 33/105/28
o cube
v 0.46875 0.65625 0.53125
v 0.46875 0.65625 0.46875
v 0.46875 0.59375 0.53125
v 0.46875 0.59375 0.46875
v 0.34375 0.65625 0.46875
v 0.34375 0.65625 0.53125
v 0.34375 0.59375 0.46875
v 0.34375 0.59375 0.53125
vt 0.1875 0.4375
vt 0.0625 0.4375
vt 0.0625 0.375
vt 0.1875 0.375
vt 0.1875 0.4375
vt 0.25 0.4375
vt 0.25 0.375
vt 0.1875 0.375
vt 0.0625 0.4375
vt 0.1875 0.4375
vt 0.1875 0.375
vt 0.0625 0.375
vt 0 0.4375
vt 0.0625 0.4375
vt 0.0625 0.375
vt 0 0.375
vt 0.0625 0.5
vt 0.1875 0.5
vt 0.1875 0.4375
vt 0.0625 0.4375
vt 0.0625 0.375
vt 0.1875 0.375
vt 0.1875 0.3125
vt 0.0625 0.3125
vn 0 0 -1
vn 1 0 0
vn 0 0 1
vn -1 0 0
vn 0 1 0
vn 0 -1 0
usemtl m_06e51f59-a2cb-a6f2-06ca-0f00fb24d054
f 40/112/29 43/111/29 41/110/29 38/109/29
f 39/116/30 40/115/30 38/114/30 37/113/30
f 44/120/31 39/119/31 37/118/31 42/117/31
f 43/124/32 44/123/32 42/122/32 41/121/32
f 42/128/33 37/127/33 38/126/33 41/125/33
f 43/132/34 40/131/34 39/130/34 44/129/34
o cube
v 0.53125 0.65625 0.46875
v 0.53125 0.65625 0.53125
v 0.53125 0.59375 0.46875
v 0.53125 0.59375 0.53125
v 0.65625 0.65625 0.53125
v 0.65625 0.65625 0.46875
v 0.65625 0.59375 0.53125
v 0.65625 0.59375 0.46875
vt 0.1875 0.4375
vt 0.0625 0.4375
vt 0.0625 0.375
vt 0.1875 0.375
vt 0.1875 0.4375
vt 0.25 0.4375
vt 0.25 0.375
vt 0.1875 0.375
vt 0.0625 0.4375
vt 0.1875 0.4375
vt 0.1875 0.375
vt 0.0625 0.375
vt 0 0.4375
vt 0.0625 0.4375
vt 0.0625 0.375
vt 0 0.375
vt 0.0625 0.5
vt 0.1875 0.5
vt 0.1875 0.4375
vt 0.0625 0.4375
vt 0.0625 0.375
vt 0.1875 0.375
vt 0.1875 0.3125
vt 0.0625 0.3125
vn 1.2246467991473532e-16 0 1
vn -1 0 1.2246467991473532e-16
vn -1.2246467991473532e-16 0 -1
vn 1 0 -1.2246467991473532e-16
vn 0 1 0
vn 0 -1 0
usemtl m_06e51f59-a2cb-a6f2-06ca-0f00fb24d054
f 48/136/35 51/135/35 49/134/35 46/133/35
f 47/140/36 48/139/36 46/138/36 45/137/36
f 52/144/37 47/143/37 45/142/37 50/141/37
f 51/148/38 52/147/38 50/146/38 49/145/38
f 50/152/39 45/151/39 46/150/39 49/149/39
f 51/156/40 48/155/40 47/154/40 52/153/40
o cube
v 0.65625 0.59375 0.46875
v 0.65625 0.59375 0.53125
v 0.65625 0.40625 0.46875
v 0.65625 0.40625 0.53125
v 0.65625 0.59375 0.53125
v 0.65625 0.59375 0.46875
v 0.65625 0.40625 0.53125
v 0.65625 0.40625 0.46875
vt 0 0.25
vt 0.0625 0.25
vt 0.0625 0.0625
vt 0 0.0625
vt 0 0.25
vt 0.0625 0.25
vt 0.0625 0.0625
vt 0 0.0625
vn -1 0 1.2246467991473532e-16
vn 1 0 -1.2246467991473532e-16
usemtl m_06e51f59-a2cb-a6f2-06ca-0f00fb24d054
f 55/160/41 56/159/41 54/158/41 53/157/41
f 59/164/42 60/163/42 58/162/42 57/161/42
o cube
v 0.59375 0.40625 0.46875
v 0.59375 0.40625 0.53125
v 0.59375 0.34375 0.46875
v 0.59375 0.34375 0.53125
v 0.65625 0.40625 0.53125
v 0.65625 0.40625 0.46875
v 0.65625 0.34375 0.53125
v 0.65625 0.34375 0.46875
vt 0 0.0625
vt 0.0625 0.0625
vt 0.0625 0
vt 0 0
vt 0 0.0625
vt 0.0625 0.0625
vt 0.0625 0
vt 0 0
vt 0 0.0625
vt 0.0625 0.0625
vt 0.0625 0
vt 0 0
vt 0 0.0625
vt 0.0625 0.0625
vt 0.0625 0
vt 0 0
vt 0 0.125
vt 0.0625 0.125
vt 0.0625 0.0625
vt 0 0.0625
vt 0 0.0625
vt 0.0625 0.0625
vt 0.0625 0
vt 0 0
vn 1.2246467991473532e-16 0 1
vn -1 0 1.2246467991473532e-16
vn -1.2246467991473532e-16 0 -1
vn 1 0 -1.2246467991473532e-16
vn 0 1 0
vn 0 -1 0
usemtl m_06e51f59-a2cb-a6f2-06ca-0f00fb24d054
f 64/168/43 67/167/43 65/166/43 62/165/43
f 63/172/44 64/171/44 62/170/44 61/169/44
f 68/176/45 63/175/45 61/174/45 66/173/45
f 67/180/46 68/179/46 66/178/46 65/177/46
f 66/184/47 61/183/47 62/182/47 65/181/47
f 67/188/48 64/187/48 63/186/48 68/185/48
o cube
v 0.625 0.484375 0.59375
v 0.625 0.484375 0.40625
v 0.625 0.484375 0.59375
v 0.625 0.484375 0.40625
v 0.375 0.484375 0.40625
v 0.375 0.484375 0.59375
v 0.375 0.484375 0.40625
v 0.375 0.484375 0.59375
vt 0 1
vt 0.25 1
vt 0.25 1
vt 0 1
vt 0.0625 1
vt 0.25 1
vt 0.25 1
vt 0.0625 1
vt 0 1
vt 0.25 1
vt 0.25 1
vt 0 1
vt 0.0625 1
vt 0.25 1
vt 0.25 1
vt 0.0625 1
vt 0.375 0.3125
vt 0.625 0.3125
vt 0.625 0.5
vt 0.375 0.5
vt 0.375 0.5
vt 0.625 0.5
vt 0.625 0.3125
vt 0.375 0.3125
vn 0 0 -1
vn 1 0 0
vn 0 0 1
vn -1 0 0
vn 0 1 0
vn 0 -1 0
usemtl m_06e51f59-a2cb-a6f2-06ca-0f00fb24d054
f 72/192/49 75/191/49 73/190/49 70/189/49
f 71/196/50 72/195/50 70/194/50 69/193/50
f 76/200/51 71/199/51 69/198/51 74/197/51
f 75/204/52 76/203/52 74/202/52 73/201/52
f 74/208/53 69/207/53 70/206/53 73/205/53
f 75/212/54 72/211/54 71/210/54 76/209/54
o cube
v 0.5625 0.5 0.53125
v 0.5625 0.5 0.46875
v 0.5625 0.4375 0.53125
v 0.5625 0.4375 0.46875
v 0.4375 0.5 0.46875
v 0.4375 0.5 0.53125
v 0.4375 0.4375 0.46875
v 0.4375 0.4375 0.53125
vt 0.5625 0.25
vt 0.4375 0.25
vt 0.4375 0.1875
vt 0.5625 0.1875
vt 0.5 0.25
vt 0.5625 0.25
vt 0.5625 0.1875
vt 0.5 0.1875
vt 0.4375 0.25
vt 0.5625 0.25
vt 0.5625 0.1875
vt 0.4375 0.1875
vt 0.4375 0.25
vt 0.5 0.25
vt 0.5 0.1875
vt 0.4375 0.1875
vt 0.4375 0.25
vt 0.5625 0.25
vt 0.5625 0.1875
vt 0.4375 0.1875
vt 0.0625 0.875
vt 0.1875 0.875
vt 0.1875 0.8125
vt 0.0625 0.8125
vn 0 0 -1
vn 1 0 0
vn 0 0 1
vn -1 0 0
vn 0 1 0
vn 0 -1 0
usemtl m_06e51f59-a2cb-a6f2-06ca-0f00fb24d054
f 80/216/55 83/215/55 81/214/55 78/213/55
f 79/220/56 80/219/56 78/218/56 77/217/56
f 84/224/57 79/223/57 77/222/57 82/221/57
f 83/228/58 84/227/58 82/226/58 81/225/58
f 82/232/59 77/231/59 78/230/59 81/229/59
f 83/236/60 80/235/60 79/234/60 84/233/60